<svg width="171" height="43" viewBox="0 0 171 43" fill="none" xmlns="http://www.w3.org/2000/svg">
<rect x="0.5" y="3.5" width="36" height="36" stroke="#FFF"/>
<path d="M34.4659 22.2748L20.033 14.598V6.34778L34.4659 13.7079V22.2748Z" fill="#6A5ACD"/>
<path d="M20.033 29.6154V21.3653L34.4659 13.6884V22.2553L20.033 29.6154Z" fill="white"/>
<path d="M20.033 29.6154V21.3653L34.4659 13.6884V22.2553L20.033 29.6154Z" fill="#AFA7E4"/>
<path d="M16.9668 36.2422V27.992L2.53394 20.3152V28.8844L16.9668 36.2422Z" fill="#AFA7E4"/>
<path d="M2.53394 28.9039L16.9668 21.2247V12.9745L2.53394 20.3346V28.9039Z" fill="white"/>
<path d="M2.53394 28.9039L16.9668 21.2247V12.9745L2.53394 20.3346V28.9039Z" fill="#6A5ACD"/>
<path d="M55.544 13.536L62.376 31.148C62.656 31.8573 62.9733 32.3333 63.328 32.576C63.6827 32.8 64.0093 32.9213 64.308 32.94V33.5C63.9347 33.4627 63.4773 33.444 62.936 33.444C62.3947 33.4253 61.8533 33.416 61.312 33.416C60.584 33.416 59.9027 33.4253 59.268 33.444C58.6333 33.444 58.12 33.4627 57.728 33.5V32.94C58.68 32.9027 59.2867 32.744 59.548 32.464C59.8093 32.1653 59.7533 31.54 59.38 30.588L54.172 16.672L54.62 16.308L49.748 28.964C49.4493 29.7107 49.272 30.3453 49.216 30.868C49.16 31.372 49.2067 31.7733 49.356 32.072C49.524 32.3707 49.7947 32.5853 50.168 32.716C50.56 32.8467 51.0453 32.9213 51.624 32.94V33.5C51.1013 33.4627 50.5507 33.444 49.972 33.444C49.412 33.4253 48.8893 33.416 48.404 33.416C47.9373 33.416 47.536 33.4253 47.2 33.444C46.8827 33.444 46.584 33.4627 46.304 33.5V32.94C46.6773 32.8467 47.06 32.632 47.452 32.296C47.844 31.9413 48.1987 31.344 48.516 30.504L55.096 13.536C55.1707 13.536 55.2453 13.536 55.32 13.536C55.3947 13.536 55.4693 13.536 55.544 13.536ZM58.96 25.436V25.996L50.616 25.996L50.896 25.436L58.96 25.436ZM73.6567 18.688C74.1607 18.688 74.5994 18.7907 74.9727 18.996C75.3647 19.2013 75.6634 19.472 75.8687 19.808C76.0927 20.1253 76.2047 20.4893 76.2047 20.9C76.2047 21.3667 76.0554 21.7773 75.7567 22.132C75.4767 22.4867 75.0941 22.664 74.6087 22.664C74.2167 22.664 73.8714 22.5427 73.5727 22.3C73.2741 22.0387 73.1247 21.6747 73.1247 21.208C73.1247 20.8533 73.2181 20.5547 73.4047 20.312C73.6101 20.0507 73.8341 19.8453 74.0767 19.696C73.9461 19.5093 73.7501 19.416 73.4887 19.416C72.9101 19.416 72.3781 19.5933 71.8927 19.948C71.4074 20.284 70.9967 20.7227 70.6607 21.264C70.3247 21.8053 70.0634 22.384 69.8767 23C69.6901 23.5973 69.5967 24.1573 69.5967 24.68V30.616C69.5967 31.5307 69.8581 32.1467 70.3807 32.464C70.9221 32.7627 71.6501 32.912 72.5647 32.912V33.5C72.1354 33.4813 71.5287 33.4627 70.7447 33.444C69.9607 33.4067 69.1301 33.388 68.2527 33.388C67.6181 33.388 66.9834 33.4067 66.3487 33.444C65.7327 33.4627 65.2661 33.4813 64.9487 33.5V32.912C65.7141 32.912 66.2554 32.772 66.5727 32.492C66.9087 32.212 67.0767 31.68 67.0767 30.896V22.132C67.0767 21.292 66.9274 20.676 66.6287 20.284C66.3301 19.8733 65.7701 19.668 64.9487 19.668V19.08C65.5461 19.136 66.1247 19.164 66.6847 19.164C67.2261 19.164 67.7394 19.136 68.2247 19.08C68.7287 19.0053 69.1861 18.9027 69.5967 18.772V22.272C69.8021 21.7307 70.0914 21.1893 70.4647 20.648C70.8567 20.088 71.3234 19.6213 71.8647 19.248C72.4061 18.8747 73.0034 18.688 73.6567 18.688ZM81.9255 14.432V19.108L86.0695 19.108V19.668L81.9255 19.668V30.504C81.9255 31.3813 82.0841 31.9973 82.4015 32.352C82.7188 32.7067 83.1575 32.884 83.7175 32.884C84.2775 32.884 84.7628 32.66 85.1735 32.212C85.5841 31.7453 85.9388 30.9707 86.2375 29.888L86.7975 30.028C86.6108 31.1107 86.2375 32.0253 85.6775 32.772C85.1361 33.5187 84.2961 33.892 83.1575 33.892C82.5228 33.892 82.0001 33.808 81.5895 33.64C81.1788 33.4907 80.8148 33.2667 80.4975 32.968C80.0868 32.5387 79.7975 32.0253 79.6295 31.428C79.4801 30.8307 79.4055 30.0373 79.4055 29.048V19.668H76.7175V19.108H79.4055V14.824C79.8721 14.8053 80.3201 14.768 80.7495 14.712C81.1788 14.656 81.5708 14.5627 81.9255 14.432ZM101.652 13.676C101.577 14.3853 101.521 15.076 101.484 15.748C101.465 16.4013 101.456 16.9053 101.456 17.26C101.456 17.708 101.465 18.128 101.484 18.52C101.503 18.912 101.521 19.2573 101.54 19.556H100.896C100.765 18.2493 100.588 17.2227 100.364 16.476C100.14 15.7107 99.7479 15.16 99.1879 14.824C98.6279 14.488 97.7599 14.32 96.5839 14.32H94.8199C94.1852 14.32 93.6999 14.376 93.3639 14.488C93.0466 14.5813 92.8319 14.796 92.7199 15.132C92.6079 15.4493 92.5519 15.9533 92.5519 16.644V30.532C92.5519 31.204 92.6172 31.708 92.7479 32.044C92.8972 32.38 93.1772 32.604 93.5879 32.716C93.9986 32.828 94.5959 32.9027 95.3799 32.94V33.5C94.8946 33.4627 94.2786 33.444 93.5319 33.444C92.7852 33.4253 92.0292 33.416 91.2639 33.416C90.5359 33.416 89.8546 33.4253 89.2199 33.444C88.5852 33.444 88.0719 33.4627 87.6799 33.5V32.94C88.3146 32.9027 88.7906 32.828 89.1079 32.716C89.4439 32.604 89.6679 32.38 89.7799 32.044C89.8919 31.708 89.9479 31.204 89.9479 30.532V16.644C89.9479 15.9533 89.8919 15.4493 89.7799 15.132C89.6679 14.796 89.4439 14.572 89.1079 14.46C88.7906 14.3293 88.3146 14.2547 87.6799 14.236V13.676C88.3706 13.6947 89.0986 13.7133 89.8639 13.732C90.6292 13.732 91.3852 13.7413 92.1319 13.76C92.8786 13.76 93.5692 13.76 94.2039 13.76C94.8572 13.76 95.3892 13.76 95.7999 13.76C96.6586 13.76 97.6292 13.76 98.7119 13.76C99.8132 13.7413 100.793 13.7133 101.652 13.676ZM97.3119 23.532C97.3119 23.532 97.3119 23.6253 97.3119 23.812C97.3119 23.9987 97.3119 24.092 97.3119 24.092L91.7119 24.092C91.7119 24.092 91.7119 23.9987 91.7119 23.812C91.7119 23.6253 91.7119 23.532 91.7119 23.532L97.3119 23.532ZM97.8439 19.836C97.7692 20.9 97.7319 21.712 97.7319 22.272C97.7506 22.832 97.7599 23.3453 97.7599 23.812C97.7599 24.2787 97.7692 24.792 97.7879 25.352C97.8066 25.912 97.8532 26.724 97.9279 27.788H97.2839C97.2092 27.1907 97.1159 26.612 97.0039 26.052C96.9106 25.4733 96.6866 25.0067 96.3319 24.652C95.9959 24.2787 95.4172 24.092 94.5959 24.092V23.532C95.2119 23.532 95.6786 23.4107 95.9959 23.168C96.3319 22.9067 96.5746 22.58 96.7239 22.188C96.8732 21.796 96.9759 21.3947 97.0319 20.984C97.0879 20.5547 97.1439 20.172 97.1999 19.836L97.8439 19.836ZM106.449 12.08C106.935 12.08 107.355 12.2573 107.709 12.612C108.064 12.9667 108.241 13.3867 108.241 13.872C108.241 14.3573 108.064 14.7773 107.709 15.132C107.355 15.4867 106.935 15.664 106.449 15.664C105.964 15.664 105.544 15.4867 105.189 15.132C104.835 14.7773 104.657 14.3573 104.657 13.872C104.657 13.3867 104.835 12.9667 105.189 12.612C105.544 12.2573 105.964 12.08 106.449 12.08ZM107.905 18.772V30.896C107.905 31.68 108.064 32.212 108.381 32.492C108.717 32.772 109.268 32.912 110.033 32.912V33.5C109.716 33.4813 109.231 33.4627 108.577 33.444C107.943 33.4067 107.299 33.388 106.645 33.388C106.011 33.388 105.367 33.4067 104.713 33.444C104.06 33.4627 103.575 33.4813 103.257 33.5V32.912C104.023 32.912 104.564 32.772 104.881 32.492C105.217 32.212 105.385 31.68 105.385 30.896V22.132C105.385 21.292 105.236 20.676 104.937 20.284C104.639 19.8733 104.079 19.668 103.257 19.668V19.08C103.855 19.136 104.433 19.164 104.993 19.164C105.535 19.164 106.048 19.136 106.533 19.08C107.037 19.0053 107.495 18.9027 107.905 18.772ZM120.868 18.688C121.578 18.688 122.166 18.7813 122.632 18.968C123.118 19.1547 123.519 19.416 123.836 19.752C124.191 20.1253 124.443 20.592 124.592 21.152C124.742 21.712 124.816 22.468 124.816 23.42L124.816 30.896C124.816 31.68 124.975 32.212 125.292 32.492C125.628 32.772 126.179 32.912 126.944 32.912V33.5C126.627 33.4813 126.142 33.4627 125.488 33.444C124.835 33.4067 124.2 33.388 123.584 33.388C122.968 33.388 122.362 33.4067 121.764 33.444C121.186 33.4627 120.747 33.4813 120.448 33.5V32.912C121.12 32.912 121.596 32.772 121.876 32.492C122.156 32.212 122.296 31.68 122.296 30.896L122.296 22.804C122.296 22.2253 122.25 21.6933 122.156 21.208C122.063 20.7227 121.848 20.3307 121.512 20.032C121.195 19.7333 120.7 19.584 120.028 19.584C119.244 19.584 118.554 19.808 117.956 20.256C117.378 20.704 116.92 21.32 116.584 22.104C116.267 22.8693 116.108 23.728 116.108 24.68L116.108 30.896C116.108 31.68 116.248 32.212 116.528 32.492C116.808 32.772 117.284 32.912 117.956 32.912V33.5C117.658 33.4813 117.21 33.4627 116.612 33.444C116.034 33.4067 115.436 33.388 114.82 33.388C114.204 33.388 113.57 33.4067 112.916 33.444C112.263 33.4627 111.778 33.4813 111.46 33.5V32.912C112.226 32.912 112.767 32.772 113.084 32.492C113.42 32.212 113.588 31.68 113.588 30.896L113.588 22.132C113.588 21.292 113.439 20.676 113.14 20.284C112.842 19.8733 112.282 19.668 111.46 19.668V19.08C112.058 19.136 112.636 19.164 113.196 19.164C113.738 19.164 114.251 19.136 114.736 19.08C115.24 19.0053 115.698 18.9027 116.108 18.772V22.076C116.594 20.8067 117.266 19.9293 118.124 19.444C119.002 18.94 119.916 18.688 120.868 18.688ZM140.907 11.548V30.448C140.907 31.288 141.057 31.9133 141.355 32.324C141.673 32.716 142.233 32.912 143.035 32.912V33.5C142.457 33.444 141.878 33.416 141.299 33.416C140.758 33.416 140.235 33.444 139.731 33.5C139.246 33.556 138.798 33.6587 138.387 33.808V14.908C138.387 14.068 138.238 13.452 137.939 13.06C137.641 12.6493 137.081 12.444 136.259 12.444V11.856C136.857 11.912 137.435 11.94 137.995 11.94C138.537 11.94 139.05 11.912 139.535 11.856C140.039 11.7813 140.497 11.6787 140.907 11.548ZM135.027 18.688C135.849 18.688 136.614 18.884 137.323 19.276C138.051 19.668 138.537 20.34 138.779 21.292L138.415 21.572C138.154 20.788 137.743 20.2187 137.183 19.864C136.642 19.5093 135.998 19.332 135.251 19.332C134.15 19.332 133.226 19.9013 132.479 21.04C131.751 22.1787 131.397 23.9333 131.415 26.304C131.415 27.816 131.555 29.076 131.835 30.084C132.134 31.0733 132.563 31.82 133.123 32.324C133.702 32.8093 134.402 33.052 135.223 33.052C136.007 33.052 136.717 32.716 137.351 32.044C137.986 31.372 138.369 30.3827 138.499 29.076L138.835 29.468C138.686 30.8867 138.229 31.9787 137.463 32.744C136.717 33.5093 135.699 33.892 134.411 33.892C133.254 33.892 132.237 33.612 131.359 33.052C130.501 32.492 129.838 31.652 129.371 30.532C128.923 29.412 128.699 28.0027 128.699 26.304C128.699 24.6053 128.989 23.196 129.567 22.076C130.165 20.9373 130.939 20.088 131.891 19.528C132.862 18.968 133.907 18.688 135.027 18.688ZM151.241 18.688C152.884 18.688 154.162 19.192 155.077 20.2C156.01 21.1893 156.477 22.7387 156.477 24.848L146.593 24.848L146.565 24.316H153.789C153.826 23.4013 153.752 22.5613 153.565 21.796C153.378 21.012 153.08 20.3867 152.669 19.92C152.277 19.4533 151.764 19.22 151.129 19.22C150.27 19.22 149.505 19.6493 148.833 20.508C148.18 21.3667 147.788 22.7293 147.657 24.596L147.741 24.708C147.704 24.988 147.676 25.296 147.657 25.632C147.638 25.968 147.629 26.304 147.629 26.64C147.629 27.9093 147.834 29.0013 148.245 29.916C148.656 30.8307 149.188 31.5307 149.841 32.016C150.513 32.4827 151.204 32.716 151.913 32.716C152.473 32.716 153.005 32.632 153.509 32.464C154.013 32.2773 154.48 31.9787 154.909 31.568C155.338 31.1573 155.712 30.6067 156.029 29.916L156.589 30.14C156.384 30.756 156.048 31.3533 155.581 31.932C155.114 32.5107 154.526 32.9867 153.817 33.36C153.108 33.7147 152.286 33.892 151.353 33.892C150.009 33.892 148.852 33.584 147.881 32.968C146.929 32.352 146.192 31.5027 145.669 30.42C145.165 29.3187 144.913 28.0587 144.913 26.64C144.913 24.9973 145.174 23.588 145.697 22.412C146.22 21.2173 146.957 20.3027 147.909 19.668C148.861 19.0147 149.972 18.688 151.241 18.688ZM167.309 18.688C167.813 18.688 168.252 18.7907 168.625 18.996C169.017 19.2013 169.316 19.472 169.521 19.808C169.745 20.1253 169.857 20.4893 169.857 20.9C169.857 21.3667 169.708 21.7773 169.409 22.132C169.129 22.4867 168.746 22.664 168.261 22.664C167.869 22.664 167.524 22.5427 167.225 22.3C166.926 22.0387 166.777 21.6747 166.777 21.208C166.777 20.8533 166.87 20.5547 167.057 20.312C167.262 20.0507 167.486 19.8453 167.729 19.696C167.598 19.5093 167.402 19.416 167.141 19.416C166.562 19.416 166.03 19.5933 165.545 19.948C165.06 20.284 164.649 20.7227 164.313 21.264C163.977 21.8053 163.716 22.384 163.529 23C163.342 23.5973 163.249 24.1573 163.249 24.68V30.616C163.249 31.5307 163.51 32.1467 164.033 32.464C164.574 32.7627 165.302 32.912 166.217 32.912V33.5C165.788 33.4813 165.181 33.4627 164.397 33.444C163.613 33.4067 162.782 33.388 161.905 33.388C161.27 33.388 160.636 33.4067 160.001 33.444C159.385 33.4627 158.918 33.4813 158.601 33.5V32.912C159.366 32.912 159.908 32.772 160.225 32.492C160.561 32.212 160.729 31.68 160.729 30.896V22.132C160.729 21.292 160.58 20.676 160.281 20.284C159.982 19.8733 159.422 19.668 158.601 19.668V19.08C159.198 19.136 159.777 19.164 160.337 19.164C160.878 19.164 161.392 19.136 161.877 19.08C162.381 19.0053 162.838 18.9027 163.249 18.772V22.272C163.454 21.7307 163.744 21.1893 164.117 20.648C164.509 20.088 164.976 19.6213 165.517 19.248C166.058 18.8747 166.656 18.688 167.309 18.688Z" fill="black"/>
</svg>
