<svg width="27" height="27" viewBox="0 0 27 27" fill="none" xmlns="http://www.w3.org/2000/svg">
<path d="M26.3 13.5C26.2989 6.69105 20.9674 1.07467 14.1678 0.719457C7.36806 0.36424 1.4804 5.39453 0.769871 12.1663C0.0593397 18.9381 4.77466 25.0809 11.5 26.1448L11.5 17.2H8.25039V13.5H11.5L11.5 10.68C11.5 7.47201 13.4112 5.70001 16.3344 5.70001C17.2944 5.71333 18.2521 5.79675 19.2 5.94961L19.2 9.10001L17.5856 9.10001C17.0283 9.026 16.4676 9.20944 16.0619 9.59854C15.6562 9.98763 15.4494 10.5401 15.5 11.1L15.5 13.5L19.0504 13.5L18.4824 17.2H15.5L15.5 26.1448C21.7205 25.1608 26.301 19.7979 26.3 13.5Z" fill="#6A5ACD"/>
</svg>
