<svg width="25" height="25" viewBox="0 0 25 25" fill="none" xmlns="http://www.w3.org/2000/svg">
<path d="M12.5 2.66C15.7 2.66 16.084 2.672 17.3488 2.7296C18.11 2.73858 18.8639 2.87849 19.5776 3.1432C20.0986 3.33554 20.5699 3.64227 20.9568 4.0408C21.3553 4.42766 21.6621 4.89895 21.8544 5.42C22.1191 6.1337 22.259 6.88764 22.268 7.6488C22.3256 8.916 22.34 9.3 22.34 12.5C22.34 15.7 22.328 16.084 22.2704 17.3488C22.2614 18.11 22.1215 18.8639 21.8568 19.5776C21.4529 20.6236 20.626 21.4505 19.58 21.8544C18.8663 22.1191 18.1124 22.259 17.3512 22.268C16.0864 22.3256 15.7064 22.3376 12.5024 22.3376C9.2984 22.3376 8.9184 22.3256 7.6536 22.268C6.89244 22.259 6.1385 22.1191 5.4248 21.8544C4.90375 21.6621 4.43246 21.3553 4.0456 20.9568C3.64707 20.5699 3.34034 20.0986 3.148 19.5776C2.88329 18.8639 2.74338 18.11 2.7344 17.3488C2.6744 16.084 2.66 15.704 2.66 12.5C2.66 9.296 2.672 8.916 2.7296 7.6512C2.73858 6.89004 2.87849 6.1361 3.1432 5.4224C3.33624 4.90113 3.6438 4.42981 4.0432 4.0432C4.43006 3.64467 4.90135 3.33794 5.4224 3.1456C6.1361 2.88089 6.89004 2.74098 7.6512 2.732C8.916 2.6744 9.3 2.66 12.5 2.66ZM12.5 0.5C9.2408 0.5 8.832 0.5136 7.5528 0.572C6.55698 0.593098 5.57189 0.782434 4.6392 1.132C3.83901 1.43316 3.11396 1.90487 2.5144 2.5144C1.90401 3.11373 1.43146 3.83879 1.1296 4.6392C0.780034 5.57189 0.590698 6.55698 0.5696 7.5528C0.5136 8.832 0.5 9.2408 0.5 12.5C0.5 15.7592 0.5136 16.168 0.572 17.4472C0.593098 18.443 0.782434 19.4281 1.132 20.3608C1.43386 21.1612 1.90641 21.8863 2.5168 22.4856C3.11613 23.096 3.84119 23.5685 4.6416 23.8704C5.57429 24.22 6.55938 24.4093 7.5552 24.4304C8.8352 24.4888 9.2432 24.5024 12.5024 24.5024C15.7616 24.5024 16.1704 24.4888 17.4496 24.4304C18.4454 24.4093 19.4305 24.22 20.3632 23.8704C21.9744 23.2459 23.2483 21.972 23.8728 20.3608C24.2224 19.4281 24.4117 18.443 24.4328 17.4472C24.4912 16.1672 24.5048 15.7592 24.5048 12.5C24.5048 9.2408 24.4912 8.832 24.4328 7.5528C24.4117 6.55698 24.2224 5.57189 23.8728 4.6392C23.5709 3.83879 23.0984 3.11373 22.488 2.5144C21.8887 1.90401 21.1636 1.43146 20.3632 1.1296C19.4305 0.780034 18.4454 0.590698 17.4496 0.5696C16.168 0.5136 15.7592 0.5 12.5 0.5Z" fill="#6A5ACD"/>
<path d="M12.5 6.34C9.09789 6.34 6.33997 9.09792 6.33997 12.5C6.33997 15.9021 9.09789 18.66 12.5 18.66C15.902 18.66 18.66 15.9021 18.66 12.5C18.66 9.09792 15.902 6.34 12.5 6.34ZM12.5 16.5C10.2908 16.5 8.49997 14.7091 8.49997 12.5C8.49997 10.2909 10.2908 8.5 12.5 8.5C14.7091 8.5 16.5 10.2909 16.5 12.5C16.5 14.7091 14.7091 16.5 12.5 16.5Z" fill="#6A5ACD"/>
<path d="M18.91 7.52999C19.7053 7.52999 20.35 6.88528 20.35 6.08999C20.35 5.2947 19.7053 4.64999 18.91 4.64999C18.1147 4.64999 17.47 5.2947 17.47 6.08999C17.47 6.88528 18.1147 7.52999 18.91 7.52999Z" fill="#6A5ACD"/>
</svg>
