<svg width="25" height="25" viewBox="0 0 25 25" fill="none" xmlns="http://www.w3.org/2000/svg">
<path d="M22.9 0.5L2.1 0.5C1.21634 0.5 0.5 1.21634 0.5 2.1L0.5 22.9C0.5 23.7837 1.21634 24.5 2.1 24.5L22.9 24.5C23.7837 24.5 24.5 23.7837 24.5 22.9L24.5 2.1C24.5 1.21634 23.7837 0.5 22.9 0.5ZM7.6096 20.9752H3.9992L3.9992 9.5L7.6096 9.5L7.6096 20.9752ZM5.804 7.9248C4.64504 7.92127 3.70805 6.97951 3.7104 5.82055C3.71276 4.66159 4.65356 3.72364 5.81253 3.72481C6.97149 3.72598 7.91039 4.66584 7.9104 5.8248C7.91062 6.38293 7.68856 6.91817 7.2933 7.31223C6.89804 7.70628 6.36213 7.92671 5.804 7.9248ZM20.9968 20.9752H17.46V15.4248C17.46 14.0752 17.46 12.4248 15.58 12.4248C13.7 12.4248 13.4736 13.8504 13.4736 15.3496L13.4736 21.0504H9.94L9.94 9.5L13.2488 9.5V11.0752H13.324C14.0194 9.87298 15.3208 9.15197 16.7088 9.2C20.3192 9.2 20.996 11.6 20.996 14.6752L20.9968 20.9752Z" fill="#6A5ACD"/>
</svg>
