<svg width="27" height="21" viewBox="0 0 27 21" fill="none" xmlns="http://www.w3.org/2000/svg">
<path d="M26.3 2.58001C25.34 2.98001 24.38 3.30001 23.26 3.38001C24.38 2.74001 25.18 1.70001 25.58 0.500006C24.54 1.14001 23.42 1.54001 22.22 1.78001C21.26 0.740006 19.9 0.100006 18.46 0.100006C15.58 0.100006 13.18 2.42001 13.18 5.38001C13.18 5.78001 13.26 6.18001 13.34 6.58001C8.94 6.34001 5.1 4.26001 2.46 1.06001C1.98 1.86001 1.74 2.74001 1.74 3.70001C1.74 5.54001 2.69999 7.14001 4.05999 8.10001C3.17999 8.10001 2.38 7.86001 1.66 7.46001V7.54001C1.66 10.1 3.49999 12.18 5.9 12.66C5.42 12.74 5.02 12.82 4.54 12.82C4.22 12.82 3.9 12.82 3.57999 12.74C4.22 14.82 6.22 16.34 8.46 16.42C6.7 17.86 4.38 18.66 1.9 18.66C1.5 18.66 1.02 18.66 0.619995 18.58C3.02 20.02 5.82 20.9 8.78 20.9C18.46 20.9 23.74 12.9 23.74 5.94001C23.74 5.70001 23.74 5.46001 23.74 5.30001C24.7 4.50001 25.58 3.62001 26.3 2.58001Z" fill="#6A5ACD"/>
</svg>
