<svg width="27" height="19" viewBox="0 0 27 19" fill="none" xmlns="http://www.w3.org/2000/svg">
<path d="M26.06 4.37999C26.06 4.37999 25.82 2.61999 25.02 1.81999C24.06 0.779992 22.94 0.779992 22.46 0.699992C18.86 0.459992 13.5 0.459991 13.5 0.459991C13.5 0.459991 8.13995 0.459992 4.53995 0.699992C4.05995 0.779992 2.93995 0.779992 1.97995 1.81999C1.17995 2.61999 0.939951 4.37999 0.939951 4.37999C0.939951 4.37999 0.699951 6.45999 0.699951 8.53999L0.699951 10.46C0.699951 12.54 0.939951 14.62 0.939951 14.62C0.939951 14.62 1.17995 16.38 1.97995 17.18C2.93995 18.22 4.21995 18.14 4.77995 18.3C6.85995 18.46 13.5 18.54 13.5 18.54C13.5 18.54 18.86 18.54 22.46 18.3C22.94 18.22 24.06 18.22 25.02 17.18C25.82 16.38 26.06 14.62 26.06 14.62C26.06 14.62 26.3 12.54 26.3 10.46V8.53999C26.3 6.45999 26.06 4.37999 26.06 4.37999ZM10.86 12.86L10.86 5.65999L17.74 9.25999L10.86 12.86Z" fill="#6A5ACD"/>
</svg>
